<?xml version="1.0" standalone="no"?>
<!DOCTYPE svg PUBLIC "-//W3C//DTD SVG 20010904//EN"
 "http://www.w3.org/TR/2001/REC-SVG-20010904/DTD/svg10.dtd">
<svg version="1.0" xmlns="http://www.w3.org/2000/svg"
 width="600.000000pt" height="600.000000pt" viewBox="0 0 600.000000 600.000000"
 preserveAspectRatio="xMidYMid meet">

<g transform="translate(0.000000,600.000000) scale(0.100000,-0.100000)"
fill="#000000" stroke="none">
<path d="M0 3000 l0 -3000 3000 0 3000 0 0 3000 0 3000 -3000 0 -3000 0 0
-3000z m3869 1245 c16 -8 36 -31 46 -51 23 -49 8 -105 -35 -131 l-30 -17 0
-186 c0 -136 4 -196 15 -225 17 -47 20 -261 5 -316 -10 -35 -87 -119 -109
-119 -6 0 -32 -46 -60 -102 -103 -212 -272 -357 -496 -428 -109 -34 -277 -39
-398 -11 -224 52 -409 188 -521 384 -31 54 -47 73 -65 75 -47 7 -98 49 -125
103 -24 48 -26 64 -26 168 0 64 5 134 11 156 12 42 87 125 114 125 8 0 33 41
59 96 111 233 298 388 546 450 106 27 268 25 378 -5 215 -56 408 -208 507
-399 20 -39 37 -57 62 -67 20 -8 37 -15 39 -15 2 0 4 71 4 158 l0 159 -26 13
c-29 16 -54 58 -54 90 0 33 28 78 58 94 35 19 66 20 101 1z m-1379 -1490 c61
-45 196 -108 280 -131 91 -26 328 -26 419 -1 82 22 220 87 281 132 46 33 51
35 131 35 l83 0 -49 -50 c-191 -194 -506 -292 -800 -250 -171 25 -369 120
-494 237 l-66 62 84 1 c80 0 85 -1 131 -35z m219 -1010 c3 -19 2 -19 -15 -4
-19 16 -44 15 -44 -1 0 -5 12 -15 28 -22 31 -15 42 -55 18 -64 -25 -10 -66 5
-66 23 0 15 2 15 19 -1 18 -16 51 -13 51 6 0 5 -16 16 -35 24 -19 8 -35 20
-35 27 0 39 72 50 79 12z m471 21 c0 -3 -4 -8 -10 -11 -5 -3 -10 -1 -10 4 0 6
5 11 10 11 6 0 10 -2 10 -4z m290 -56 c0 -33 -4 -60 -10 -60 -6 0 -10 27 -10
60 0 33 4 60 10 60 6 0 10 -27 10 -60z m-590 16 c28 -35 -11 -93 -47 -70 -36
22 -23 84 17 84 10 0 23 -7 30 -14z m175 3 c11 -17 -3 -23 -21 -9 -13 12 -17
11 -25 -1 -21 -33 4 -72 30 -46 6 6 14 8 18 4 11 -12 -13 -29 -37 -25 -47 7
-43 88 4 88 14 0 28 -5 31 -11z m125 -34 c0 -25 -4 -45 -10 -45 -5 0 -10 20
-10 45 0 25 5 45 10 45 6 0 10 -20 10 -45z m164 29 c3 -9 6 -28 6 -44 0 -26
-3 -28 -32 -27 -28 2 -33 6 -33 27 0 17 7 26 25 30 15 4 20 9 13 13 -6 4 -19
4 -29 0 -12 -4 -15 -3 -10 5 11 17 53 15 60 -4z"/>
<path d="M2830 3900 c-164 -16 -274 -52 -364 -120 -86 -65 -130 -146 -145
-267 -25 -200 47 -403 194 -549 183 -180 439 -236 687 -150 288 101 479 404
438 697 -28 200 -155 321 -387 368 -117 24 -300 33 -423 21z"/>
<path d="M2831 1712 c-7 -14 -7 -24 2 -35 16 -22 40 -7 35 23 -4 30 -24 36
-37 12z"/>
<path d="M3295 1690 c-3 -5 -4 -14 0 -20 8 -13 35 -1 35 16 0 16 -26 19 -35 4z"/>
</g>
</svg>
